<svg id="Capa_1" data-name="Capa 1" xmlns="http://www.w3.org/2000/svg" viewBox="0 0 400 400"><defs><style>.cls-1{fill:#1f2143;}</style></defs><title>Sin título-1</title><path class="cls-1" d="M203.85,44.59c-80,0-145,65.05-145,145s65,145,145,145,145-65,145-145S283.8,44.59,203.85,44.59Zm0,274.32A129.29,129.29,0,1,1,333.17,189.59,128.9,128.9,0,0,1,203.85,318.91Z"/><path class="cls-1" d="M154.28,156.67A15,15,0,0,1,169.56,172h15.68a31,31,0,0,0-61.91,0H139A15.05,15.05,0,0,1,154.28,156.67Z"/><path class="cls-1" d="M253.41,156.67A15.05,15.05,0,0,1,268.69,172h15.67a31,31,0,0,0-61.91,0h15.68A15,15,0,0,1,253.41,156.67Z"/><path class="cls-1" d="M203.57,269.92a91,91,0,0,0,76-41.26l-13.17-8.5a74.47,74.47,0,0,1-125.17,0l-13.17,8.5a91,91,0,0,0,65.33,40.68A88.69,88.69,0,0,0,203.57,269.92Z"/></svg>