<svg id="Capa_1" data-name="Capa 1" xmlns="http://www.w3.org/2000/svg" viewBox="0 0 400 400"><defs><style>.cls-1{fill:#e6293c;}</style></defs><title>Sin título-1</title><path class="cls-1" d="M316.54,145.53H257V104c0-20.5-6.3-35.37-18.78-44.29-19.61-14-46.22-6.13-47.36-5.76l-8,2.48v59.15c0,14.31-8,27-23.88,37.85a11,11,0,0,0-2.8,15.54,11.7,11.7,0,0,0,16,2.73c22-15,33.68-34.44,33.68-56.12V73.74c5.73-.49,13.3-.12,18.91,3.84,6.23,4.46,9.42,13.32,9.42,26.26v63.87h82.5c13,0,23.69,10.09,24.07,22.73L323.54,295.05l-.06.38c-.76,5.82-3,23.59-30.88,23.59H164.2c-12.61,0-22.86-10-22.86-22.23V193.35c0-18.89-15.79-34.32-35.27-34.32H90c-19.42,0-35.27,15.36-35.27,34.32v106.1c0,18.89,15.78,34.32,35.27,34.32a11.15,11.15,0,1,0,0-22.3,12.2,12.2,0,0,1-12.36-12V193.35a12.2,12.2,0,0,1,12.36-12h16.1a12.2,12.2,0,0,1,12.35,12v106.1a11.64,11.64,0,0,0,.32,2.6c2.67,22.12,22,39.34,45.46,39.34H292.48c13,0,24.57-3,33.36-8.8,11.33-7.37,18.33-19.2,20.24-34.19l17.25-105.24a9.62,9.62,0,0,0,.19-1.92C363.52,166,342.45,145.53,316.54,145.53Z"/></svg>