<svg id="Capa_1" data-name="Capa 1" xmlns="http://www.w3.org/2000/svg" viewBox="0 0 400 400"><defs><style>.cls-1{fill:#1f2143;}</style></defs><title>Sin título-1</title><rect class="cls-1" x="115.8" y="136.12" width="32.88" height="144.93"/><path class="cls-1" d="M208.1,283.47c13.5,0,26.24-6.07,32.88-17.85h.5l1.43,15.43h29c-.37-7-.86-19.58-.86-31.43V128.41H238.39v57H238c-4.72-7.31-14.84-11.85-27.77-11.85-25.16,0-47.35,20.44-47.06,55.94C163.17,262.16,183.12,283.47,208.1,283.47Zm10.72-85c10.12,0,17.15,7.33,19.08,16.1a38.85,38.85,0,0,1,.49,5.87v13.7a26.73,26.73,0,0,1-.86,7.53c-1.93,9.26-9.46,15.7-18.91,15.7-13.6,0-22.37-11.18-22.37-29C196.25,211.83,204,198.52,218.82,198.52Z"/><path class="cls-1" d="M42.38,54.45v303h303v-303ZM326.62,338.69H61.12V73.19h265.5Z"/></svg>