<svg id="Capa_1" data-name="Capa 1" xmlns="http://www.w3.org/2000/svg" viewBox="0 0 400 400"><defs><style>.cls-1{fill:#e6293c;}</style></defs><title>Sin título-1</title><path class="cls-1" d="M198.23,59.63c-79.95,0-145,65.05-145,145s65.05,145,145,145,145-65,145-145S278.18,59.63,198.23,59.63Zm0,280.34C123.61,340,62.9,279.26,62.9,204.63S123.61,69.3,198.23,69.3,333.56,130,333.56,204.63,272.85,340,198.23,340Z"/><path class="cls-1" d="M198.23,88.63a4.84,4.84,0,0,0-4.83,4.84V204.63H120.9a4.84,4.84,0,1,0,0,9.67h77.33a4.83,4.83,0,0,0,4.83-4.83v-116A4.84,4.84,0,0,0,198.23,88.63Z"/></svg>