<svg id="Capa_1" data-name="Capa 1" xmlns="http://www.w3.org/2000/svg" viewBox="0 0 400 400"><defs><style>.cls-1{fill:#1f2143;}</style></defs><title>Sin título-1</title><path class="cls-1" d="M279.82,60.51H146.07a20.32,20.32,0,0,0-20.26,20.26V340.24a20.33,20.33,0,0,0,20.26,20.27H279.82a20.32,20.32,0,0,0,20.26-20.27V80.77A20.32,20.32,0,0,0,279.82,60.51Zm-88.27,14.6h42.79a2.46,2.46,0,0,1,0,4.91H191.55a2.46,2.46,0,0,1,0-4.91ZM213,350.38a10.14,10.14,0,1,1,10.13-10.14A10.13,10.13,0,0,1,213,350.38ZM286,323H139.91V92.64H286Z"/></svg>