<svg id="Capa_1" data-name="Capa 1" xmlns="http://www.w3.org/2000/svg" viewBox="0 0 400 400"><defs><style>.cls-1{fill:#1f2143;}</style></defs><title>Sin título-1</title><path class="cls-1" d="M156.41,240.29h40.71l11,36.47h34.56l-44.1-142.24H156.41L112.87,276.76h33.35ZM176,158.55h.41c2.09,8.51,16.1,57.62,16.1,57.62H161S173.87,167.06,176,158.55Z"/><rect class="cls-1" x="255.22" y="173.61" width="32.13" height="103.16"/><path class="cls-1" d="M271.09,160.91c10.61,0,17.32-7.21,17.32-16-.25-9.3-6.71-16.26-17.07-16.26s-17.15,7-16.92,16.26C254.19,153.7,261,160.91,271.09,160.91Z"/><path class="cls-1" d="M55.9,58V347.43H345.38V58ZM327.48,329.53H73.8V75.85H327.48Z"/></svg>