<svg id="Capa_1" data-name="Capa 1" xmlns="http://www.w3.org/2000/svg" viewBox="0 0 400 400"><defs><style>.cls-1{fill:#1f2143;}</style></defs><title>Sin título-1</title><path class="cls-1" d="M187,126.47a5.67,5.67,0,1,0,5.67,5.66A5.67,5.67,0,0,0,187,126.47Z"/><path class="cls-1" d="M198.35,194.43H175.7a5.68,5.68,0,0,0-5.38,3.87l-5.95,17.87-6-17.87a5.67,5.67,0,0,0-5.38-3.87h-6.9l-10.26-41a5.66,5.66,0,0,0-11,0l-10.26,41H96.41a5.67,5.67,0,1,0,0,11.33h22.65a5.67,5.67,0,0,0,5.5-4.29l5.83-23.33,5.83,23.33a5.67,5.67,0,0,0,5.5,4.29H149l10,30.11a5.66,5.66,0,0,0,10.74,0l10-30.11h18.57a5.67,5.67,0,0,0,0-11.33Z"/><path class="cls-1" d="M325.48,332.54c-7.32-6.69-81.76-74.54-92.27-84.12a102,102,0,1,0-32,31.91l85.28,93.29a28.32,28.32,0,1,0,39-41.08ZM82.74,257.94a90.62,90.62,0,1,1,128.31.17A90.56,90.56,0,0,1,82.74,257.94Zm128.5,16.37-.18-.19-.45-.44a102.27,102.27,0,0,0,16-16l13,11.88-17.1,17.1Zm107.29,91.28a17,17,0,0,1-24.64-.66l-63.73-69.86L248,277.23l69.88,63.71A17,17,0,0,1,318.53,365.59Z"/><path class="cls-1" d="M208.24,143.68a5.67,5.67,0,1,0-8.75,7.2,68,68,0,1,1-34.67-22.41,5.67,5.67,0,0,0,3-10.94,79.25,79.25,0,1,0,40.47,26.15Z"/></svg>