<svg id="Capa_1" data-name="Capa 1" xmlns="http://www.w3.org/2000/svg" viewBox="0 0 400 400"><defs><style>.cls-1{fill:#1f2143;}</style></defs><title>Sin título-1</title><path class="cls-1" d="M323.39,60,296.2,80.36l-27.35,63.75h-22l-8.64-18.71h5.64a18.65,18.65,0,0,0,18.71-18.62V88h9.36V59.92H243.87V88h9.36v18.8a9.3,9.3,0,0,1-9.36,9.27h-10L222,90.18,236.28,83,189.38,63l-11,38.58a42.09,42.09,0,1,0-65.46,35.52v7.05H101.58l-.73,3.84a105,105,0,0,0-.63,36L68.31,240.82l35.24,8.05v58.95h46.77v42.1H262.58V284.74A121.92,121.92,0,0,0,314,184.61V167.54a108.4,108.4,0,0,0-1.8-19.55l-.69-3.88h-9.18l21.05-50.42V60ZM253.23,78.72V69.36h9.35v9.36Zm-16.67,65.39H218.82l-8.5-18.71h17.61Zm-41.1-68.36,18.59,8-4.39,2.15,14,30.18H206.06L194.67,91l-4.19,2.11Zm13.08,68.36h-20.8v-9.26a9.45,9.45,0,0,1,9.36-9.45H200Zm-18.36-40.33,5.67,12.48a18.67,18.67,0,0,0-17.46,18.59v9.26H159.68v-7.05a42.24,42.24,0,0,0,17.85-27Zm-86.63-1.67a32.74,32.74,0,1,1,49.11,28.32l-2.34,1.35v12.33H141V115.27a14,14,0,1,0-9.36,0v28.84h-9.35V131.78l-2.33-1.35A32.87,32.87,0,0,1,103.55,102.11Zm32.74,4.67a4.68,4.68,0,1,1,4.68-4.67A4.68,4.68,0,0,1,136.29,106.78Zm167.36,46.69a98.11,98.11,0,0,1,1,14v17.1a113.87,113.87,0,0,1-49.39,93.85l-2.06,1.41v60.71H159.68v-42.1H112.9V241.41L82.59,234.5,110,185.68,109.7,184a96.81,96.81,0,0,1-.32-30.54H303.65Zm-11.45-9.36H279l23.31-54.36,10.37,5.17ZM314,85.18l-5.17-2.59L314,78.72Z"/><path class="cls-1" d="M145.65,181.53c-7.74,0-14-4.67-14-14h-9.35c0,14,10.49,23.39,23.39,23.39S169,181.53,169,167.5h-9.35C159.68,176.86,153.38,181.53,145.65,181.53Z"/></svg>