<svg id="Capa_1" data-name="Capa 1" xmlns="http://www.w3.org/2000/svg" viewBox="0 0 400 400"><defs><style>.cls-1{fill:#e6293c;}</style></defs><title>Sin título-1</title><path class="cls-1" d="M131.36,172.45a12.06,12.06,0,0,0-17.13,17L171.36,247a11.91,11.91,0,0,0,8.49,3.55h.07a12.18,12.18,0,0,0,8.5-3.48l173.91-173a12.06,12.06,0,0,0-17-17.13L283.87,118A138.19,138.19,0,0,0,38.78,215.2c4.75,68,59.67,123,127.7,127.89,3.34.27,6.75.34,10.1.34a138.31,138.31,0,0,0,136.66-117,140.5,140.5,0,0,0,1.6-21.28,12,12,0,1,0-24.08,0,119.15,119.15,0,0,1-1.34,17.6c-9,58.19-62.21,100.47-121.21,96.25-56.12-4-101.47-49.36-105.42-105.55A113.26,113.26,0,0,1,93.1,127.37a114.11,114.11,0,0,1,173.58,7.76L180,221.42Z"/></svg>