<svg id="Capa_1" data-name="Capa 1" xmlns="http://www.w3.org/2000/svg" viewBox="0 0 400 400"><defs><style>.cls-1{fill:#1f2143;}</style></defs><title>Sin título-1</title><path class="cls-1" d="M249.5,259.27c-10.67,0-24.31-4.76-30.93-8.73l-6.39,25.7c8.73,4.76,22.21,8.07,37.32,8.07,33,0,50.07-15.82,50.07-37.38-.24-17-9.45-28.12-31.42-35.63-14.12-5-18.57-7.83-18.57-13.25,0-5.89,4.92-9.45,13.65-9.45,9.92,0,19.78,3.81,25,6.64l6.37-24.81c-7.09-3.55-19.12-6.61-32.62-6.61-28.58,0-47,16.31-47,37.79-.25,13.73,9,26.73,32.88,34.73,13.39,4.53,16.95,7.34,16.95,13.23S260.31,259.27,249.5,259.27Z"/><path class="cls-1" d="M131.76,225a90.61,90.61,0,0,0,12.26.64c21.25,0,39.49-5.17,51.68-16.7,9.54-9,14.7-22.23,14.7-37.79s-6.78-28.85-17-36.85c-10.59-8.56-26.4-12.75-48.63-12.75-22,0-37.54,1.45-48.61,3.3V282h35.63V225Zm.06-74.86c2.52-.72,7.53-1.45,14.78-1.45,18,0,28.12,8.71,28.2,23.32,0,16.34-11.89,26-31,26a57.56,57.56,0,0,1-12-.89v-47Z"/><path class="cls-1" d="M38.86,44v318h318V44ZM337.18,342.26H58.53V63.62H337.18Z"/></svg>