<?xml version="1.0" encoding="utf-8"?>
<!-- Generator: Adobe Illustrator 22.0.1, SVG Export Plug-In . SVG Version: 6.00 Build 0)  -->
<svg version="1.1" id="Capa_1" xmlns="http://www.w3.org/2000/svg" xmlns:xlink="http://www.w3.org/1999/xlink" x="0px" y="0px"
	 viewBox="0 0 196.8 140.3" style="enable-background:new 0 0 196.8 140.3;" xml:space="preserve">
<style type="text/css">
	.st0{fill:#DA1735;}
	.st1{fill:#161847;}
	.st2{fill:#ECB75F;}
</style>
<g>
	<g id="LOGO_6_">
		<path class="st1" d="M180.3,97.6c-3,8.1-7.2,14.6-17,12.8c-9-1.7-14-10.5-15.2-19c-0.3-1.9-0.3-3.8-0.2-5.7c5.9,0,11-1.8,16.3-5.2
			c6.1-3.9,13.4-12.5,9.4-20.4c-4.7-9.2-17.9-2.7-23.4,2c-4.2,3.6-7.2,8.2-9,13.3c0,0.2,0,0.3-0.1,0.5c0,0-0.1,0-0.1,0
			c0.1-0.2,0.1-0.3,0.2-0.5c0.3-2.3,0.6-4.5,0.9-6.7c1.6-11.8,3.9-24.5,3.4-36.5c-0.4-9.9-11.9-15.9-19.9-9.4
			c-7.5,6.1-9.6,18.2-10.3,27.2c-1.2,13.4,5.4,25.1,16.1,31.2c-1.1,6.5-2.5,12.9-4.3,19.2c-0.7,2.3-1.4,4.7-2.3,6.9
			c-0.7,1.5-1.8,2.8-2.2,3.6c0.2,0,0.4,0,0.7,0c-0.2,0-0.4,0.1-0.7,0.1c0,0-0.1,0-0.1,0c0,0,0-0.1,0.1-0.1c-0.3,0-0.6-0.1-0.8-0.2
			c-0.6-0.3-1.2-0.5-1.8-0.9c-3.1-2.2-4.4-6.8-5.3-10.3c-2.2-8.5-1.1-17.5-4.2-25.8c-3-8.1-8.7-15.7-17.2-18.4
			c-23-7.3-36.3,22-31.3,40.4c2.7,9.9,9.9,19.2,20.1,22c4.9,1.3,10.4,1.2,14.9-1.3c4.5-2.5,7.5-6.8,10.3-11
			c2.2,6.4,6.1,12.4,13,13.9c5.7,1.2,9.4-2.1,11.8-7c3.5-7.1,5.6-15.2,7-23.3c0,1.1,0.1,2.1,0.3,3.2c1.4,10.1,6.7,20.1,16.2,24.6
			c8.7,4.1,20.4,3.2,26.8-4.5c3.1-3.7,4.8-8.2,6.4-12.7C190.8,94.6,182.3,92.3,180.3,97.6z M159.4,66.5c1.6-0.9,3.2-1.5,5.1-1.9
			c1.8-0.4,1.1-0.3,1.3,0.4c0.5,2.8-2.6,5.8-4.5,7.1c-3.8,2.7-7,4.4-11,4.9C152,72.6,155.1,68.9,159.4,66.5z M100,100.6
			c-3,4.4-6.1,9.4-12,9.4c-5.3-0.1-10-3.3-13.1-7.4c-6.6-8.7-6.9-21-1.5-30.3c5.7-9.7,17.5-12.1,24.9-2.7c6.5,8.4,5.3,18.7,7,28.5
			c0,0.3,0.1,0.5,0.2,0.8C103.6,98.2,101.4,98.6,100,100.6z M136.2,41c-0.5,6.1-1.1,12.2-1.8,18.3c-0.5,4.3-1,8.5-1.6,12.8
			c-1.2-0.9-2.4-2-3.4-3.1c-5.9-6.9-6.2-16.3-4.5-24.8c0.5-2.4,5.3-20.5,10.9-13.9C137.7,32.4,136.4,38.4,136.2,41z"/>
		<path class="st1" d="M122.6,111.1C122.6,111.2,122.5,111.1,122.6,111.1c0,0,0-0.1,0-0.1c0.2,0,0.4,0,0.7,0
			C123,111.1,122.8,111.1,122.6,111.1z"/>
		<path class="st1" d="M141.2,75.5c0,0.2,0,0.3-0.1,0.5c0,0-0.1,0-0.1,0C141,75.8,141.1,75.7,141.2,75.5z"/>
		<path class="st1" d="M62.8,33.6c0.1-9.6-9.6-17.2-18.6-11.7c-4.4,2.7-6.9,8.2-8.6,12.9c-2.5,7-3.7,15-2.8,22.4
			c1.3,10.7,7.1,19.2,16,24.2c-1.2,7.4-2.9,14.7-5.1,21.8c-0.8,2.3-1.5,4.5-2.8,6.6c-0.5,0.9-0.5,0.5-0.8,1c0.1,0,0.2,0.1,0.4,0.2
			c-0.3-0.1-0.6,0.3-0.5,0.1c0.1-0.1,0.1-0.2,0.1-0.3c-1.3-0.6-2.4-0.7-3.6-1.8c-1.6-1.4-2.7-3.3-3.7-5.2c-2-3.8-3.3-7.9-4.2-12.1
			c-2.2-10-1.6-20.3-7.7-29.2c-2.5-3.7-6.2-7.5-10.6-8.7c-5.5-1.5-7.8,7-2.4,8.5c0.1,0,0.1,0,0.2,0c0,0-0.1,0-0.1,0
			c0,0,0.1,0,0.2,0.1c0,0,0,0-0.1,0c0.7,0.4,1.9,1.1,2.1,1.2c2.9,2.3,4.8,5.6,6,9c2.1,5.6,2.2,11.4,3.1,17.2
			c0.7,4.9,2.1,9.6,3.9,14.2c3,7.1,10.2,18.4,19.6,15.3c5.5-1.8,7.8-9,9.4-13.9c2.2-6.8,3.8-13.9,5.1-21c4.2-0.2,5.6-6.7,1.4-8.5
			c1.1-7.9,1.9-15.8,2.7-23.6C62,46.2,62.7,39.9,62.8,33.6z M41.5,56.1c-0.7-5.9,0.5-12.2,2.3-17.8c0.9-2.7,2.5-7.6,5.3-8.9
			c6.1-2.8,4.8,6.7,4.6,9.6c-0.4,6.5-1.1,13-1.8,19.4c-0.5,4.5-1,9-1.7,13.6C45.4,68.2,42.3,62.7,41.5,56.1z"/>
		<path class="st1" d="M8,62.5c0,0,0.1,0,0.2,0.1c0,0,0,0-0.1,0C8.1,62.6,8.1,62.6,8,62.5C8,62.5,8,62.5,8,62.5z"/>
		<path class="st1" d="M40.4,111c-0.3-0.1-0.6,0.3-0.5,0.1c0.1-0.1,0.1-0.2,0.1-0.3C40.2,110.9,40.3,111,40.4,111z"/>
	</g>
	<g id="LOGO_1_">
		<path class="st0" d="M183.2,97.7c-3,8.1-7.2,14.6-17,12.8c-9-1.7-14-10.5-15.2-19c-0.3-1.9-0.3-3.8-0.2-5.7c5.9,0,11-1.8,16.3-5.2
			c6.1-3.9,13.4-12.5,9.4-20.4c-4.7-9.2-17.9-2.7-23.4,2c-4.2,3.6-7.2,8.2-9,13.3c0,0.2,0,0.3-0.1,0.5c0,0-0.1,0-0.1,0
			c0.1-0.2,0.1-0.3,0.2-0.5c0.3-2.3,0.6-4.5,0.9-6.7c1.6-11.8,3.9-24.5,3.4-36.5c-0.4-9.9-11.9-15.9-19.9-9.4
			c-7.5,6.1-9.6,18.2-10.3,27.2c-1.2,13.4,5.4,25.1,16.1,31.2c-1.1,6.5-2.5,12.9-4.3,19.2c-0.7,2.3-1.4,4.7-2.3,6.9
			c-0.7,1.5-1.8,2.8-2.2,3.6c0.2,0,0.4,0,0.7,0c-0.2,0-0.4,0.1-0.7,0.1c0,0-0.1,0-0.1,0c0,0,0-0.1,0.1-0.1c-0.3,0-0.6-0.1-0.8-0.2
			c-0.6-0.3-1.2-0.5-1.8-0.9c-3.1-2.2-4.4-6.8-5.3-10.3c-2.2-8.5-1.1-17.5-4.2-25.8c-3-8.1-8.7-15.7-17.2-18.4
			c-23-7.3-36.3,22-31.3,40.4c2.7,9.9,9.9,19.2,20.1,22c4.9,1.3,10.4,1.2,14.9-1.3c4.5-2.5,7.5-6.8,10.3-11
			c2.2,6.4,6.1,12.4,13,13.9c5.7,1.2,9.4-2.1,11.8-7c3.5-7.1,5.6-15.2,7-23.3c0,1.1,0.1,2.1,0.3,3.2c1.4,10.1,6.7,20.1,16.2,24.6
			c8.7,4.1,20.4,3.2,26.8-4.5c3.1-3.7,4.8-8.2,6.4-12.7C193.7,94.7,185.2,92.4,183.2,97.7z M162.3,66.6c1.6-0.9,3.2-1.5,5.1-1.9
			c1.8-0.4,1.1-0.3,1.3,0.4c0.5,2.8-2.6,5.8-4.5,7.1c-3.8,2.7-7,4.4-11,4.9C155,72.7,158.1,69,162.3,66.6z M102.9,100.7
			c-3,4.4-6.1,9.4-12,9.4c-5.3-0.1-10-3.3-13.1-7.4c-6.6-8.7-6.9-21-1.5-30.3c5.7-9.7,17.5-12.1,24.9-2.7c6.5,8.4,5.3,18.7,7,28.5
			c0,0.3,0.1,0.5,0.2,0.8C106.5,98.3,104.3,98.7,102.9,100.7z M139.1,41.1c-0.5,6.1-1.1,12.2-1.8,18.3c-0.5,4.3-1,8.5-1.6,12.8
			c-1.2-0.9-2.4-2-3.4-3.1c-5.9-6.9-6.2-16.3-4.5-24.8c0.5-2.4,5.3-20.5,10.9-13.9C140.7,32.5,139.3,38.5,139.1,41.1z"/>
		<path class="st0" d="M125.5,111.3C125.5,111.3,125.4,111.3,125.5,111.3c0,0,0-0.1,0-0.1c0.2,0,0.4,0,0.7,0
			C125.9,111.2,125.7,111.2,125.5,111.3z"/>
		<path class="st0" d="M144.1,75.6c0,0.2,0,0.3-0.1,0.5c0,0-0.1,0-0.1,0C144,75.9,144,75.8,144.1,75.6z"/>
		<path class="st0" d="M65.7,33.8c0.1-9.6-9.6-17.2-18.6-11.7c-4.4,2.7-6.9,8.2-8.6,12.9c-2.5,7-3.7,15-2.8,22.4
			c1.3,10.7,7.1,19.2,16,24.2c-1.2,7.4-2.9,14.7-5.1,21.8c-0.8,2.3-1.5,4.5-2.8,6.6c-0.5,0.9-0.5,0.5-0.8,1c0.1,0,0.2,0.1,0.4,0.2
			c-0.3-0.1-0.6,0.3-0.5,0.1c0.1-0.1,0.1-0.2,0.1-0.3c-1.3-0.6-2.4-0.7-3.6-1.8c-1.6-1.4-2.7-3.3-3.7-5.2c-2-3.8-3.3-7.9-4.2-12.1
			c-2.2-10-1.6-20.3-7.7-29.2c-2.5-3.7-6.2-7.5-10.6-8.7c-5.5-1.5-7.8,7-2.4,8.5c0.1,0,0.1,0,0.2,0c0,0-0.1,0-0.1,0
			c0,0,0.1,0,0.2,0.1c0,0,0,0-0.1,0c0.7,0.4,1.9,1.1,2.1,1.2c2.9,2.3,4.8,5.6,6,9c2.1,5.6,2.2,11.4,3.1,17.2
			c0.7,4.9,2.1,9.6,3.9,14.2c3,7.1,10.2,18.4,19.6,15.3c5.5-1.8,7.8-9,9.4-13.9c2.2-6.8,3.8-13.9,5.1-21c4.2-0.2,5.6-6.7,1.4-8.5
			c1.1-7.9,1.9-15.8,2.7-23.6C64.9,46.3,65.7,40,65.7,33.8z M44.4,56.2c-0.7-5.9,0.5-12.2,2.3-17.8c0.9-2.7,2.5-7.6,5.3-8.9
			c6.1-2.8,4.8,6.7,4.6,9.6c-0.4,6.5-1.1,13-1.8,19.4c-0.5,4.5-1,9-1.7,13.6C48.3,68.3,45.2,62.9,44.4,56.2z"/>
		<path class="st0" d="M10.9,62.6c0,0,0.1,0,0.2,0.1c0,0,0,0-0.1,0C11,62.7,11,62.7,10.9,62.6C11,62.7,10.9,62.6,10.9,62.6z"/>
		<path class="st0" d="M43.3,111.1c-0.3-0.1-0.6,0.3-0.5,0.1c0.1-0.1,0.1-0.2,0.1-0.3C43.1,111,43.2,111.1,43.3,111.1z"/>
	</g>
</g>
</svg>
