<?xml version="1.0" encoding="utf-8"?>
<!-- Generator: Adobe Illustrator 22.0.1, SVG Export Plug-In . SVG Version: 6.00 Build 0)  -->
<svg version="1.1" id="Capa_1" xmlns="http://www.w3.org/2000/svg" xmlns:xlink="http://www.w3.org/1999/xlink" x="0px" y="0px"
	 viewBox="0 0 88.4 140.3" style="enable-background:new 0 0 88.4 140.3;" xml:space="preserve">
<style type="text/css">
	.st0{fill:#DA1735;}
	.st1{fill:#161847;}
	.st2{fill:#ECB75F;}
</style>
<g>
	<path class="st1" d="M74.7,10.9c-4.6-5.1-12.5-6.7-18.6-3.6c-6.3,3.1-9.9,10.6-12.2,16.9c-3.4,9.2-5.1,19.9-4,29.7
		c1.7,14.2,9.4,25.6,21.3,32.1c-1.7,10-3.8,19.8-6.9,29.3c-1,3.1-2.1,6-3.7,8.8c-0.8,1.3-0.7,0.7-1.4,1.7c0,0,0.1,0,0.1,0
		c0.3,0.1-0.3,0.2-0.2,0.2c0-0.1,0.1-0.1,0.1-0.2c-10.1-3-13.7-16.4-15.8-25.6c-2.9-13-2.1-26.5-9.8-38.1
		C20.3,57.1,15.4,52,9.5,50.3C2.9,48.6,0,58.8,6.6,60.6c0.1,0,0.2,0.1,0.3,0.1c0,0,0,0,0,0c0.2,0.1,0.3,0.1,0.3,0.1
		c0,0-0.1,0-0.3-0.1c1.1,0.5,2.1,1.1,3.1,1.9c2.8,2.2,5.7,6.7,7.4,10.5c3,7.2,3.4,14.8,4.4,22.4c0.8,6.4,2.4,12.8,4.8,18.8
		c3.7,9.5,12.7,25.3,25.5,21.7c7.1-1.9,10.1-11.2,12.1-17.3c3.1-9.4,5.4-19.1,7.1-29c5.4,0.2,7.4-8.4,1.7-10.4
		c1.4-10.1,2.5-20.3,3.5-30.3c0.9-8.4,1.8-16.9,2-25.4C78.7,19.1,78,14.5,74.7,10.9z M50.4,52.2c-0.8-7.8,0.7-16,3.1-23.4
		c1.2-3.7,3.6-10.7,7.8-12.2c8.2-2.9,6.6,8.8,6.3,13.1c-0.6,8.7-1.4,17.3-2.4,25.9c-0.7,6.2-1.4,12.5-2.3,18.8
		C55.8,69.4,51.3,61.6,50.4,52.2z"/>
	<path class="st0" d="M81.7,8.8C77.1,3.7,69.2,2.1,63,5.2c-6.3,3.1-9.9,10.6-12.2,16.9c-3.4,9.2-5.1,19.9-4,29.7
		c1.7,14.2,9.4,25.6,21.3,32.1c-1.7,10-3.8,19.8-6.9,29.3c-1,3.1-2.1,6-3.7,8.8c-0.8,1.3-0.7,0.7-1.4,1.7c0,0,0.1,0,0.1,0
		c0.3,0.1-0.3,0.2-0.2,0.2c0-0.1,0.1-0.1,0.1-0.2c-10.1-3-13.7-16.4-15.8-25.6c-2.9-13-2.1-26.5-9.8-38.1
		c-3.3-4.9-8.1-10.1-14.1-11.7c-6.6-1.8-9.4,8.5-2.8,10.3c0.1,0,0.2,0.1,0.3,0.1c0,0,0,0,0,0c0.2,0.1,0.3,0.1,0.3,0.1
		c0,0-0.1,0-0.3-0.1c1.1,0.5,2.1,1.1,3.1,1.9c2.8,2.2,5.7,6.7,7.4,10.5c3,7.2,3.4,14.8,4.4,22.4c0.8,6.4,2.4,12.8,4.8,18.8
		c3.7,9.5,12.7,25.3,25.5,21.7c7.1-1.9,10.1-11.2,12.1-17.3c3.1-9.4,5.4-19.1,7.1-29c5.4,0.2,7.4-8.4,1.7-10.4
		C81.4,67.1,82.5,57,83.5,47c0.9-8.4,1.8-16.9,2-25.4C85.7,17,84.9,12.4,81.7,8.8z M57.3,50.1c-0.8-7.8,0.7-16,3.1-23.4
		c1.2-3.7,3.6-10.7,7.8-12.2c8.2-2.9,6.6,8.8,6.3,13.1C74,36.3,73.1,45,72.1,53.6c-0.7,6.2-1.4,12.5-2.3,18.8
		C62.8,67.3,58.3,59.5,57.3,50.1z"/>
</g>
</svg>
